<svg width="72" height="43" viewBox="0 0 72 43" fill="none" xmlns="http://www.w3.org/2000/svg">
<path d="M25.6113 37.9512C28.5989 39.3848 31.9817 40.5602 35.6543 41.4141C31.26 42.4357 26.452 43 21.4131 43C13.4608 43 6.0832 41.5964 0 39.2021C2.95766 39.5626 6.05428 39.7549 9.24316 39.7549C15.108 39.7549 20.6604 39.1066 25.6113 37.9512ZM45.6963 37.9512C50.6474 39.1067 56.2003 39.7549 62.0654 39.7549C65.2543 39.7549 68.3509 39.5626 71.3086 39.2021C65.2254 41.5964 57.8478 43 49.8955 43C44.8566 43 40.0486 42.4357 35.6543 41.4141C39.3266 40.5603 42.7089 39.3847 45.6963 37.9512ZM25.6113 5.04785C29.3416 5.91841 32.7302 7.07842 35.6543 8.46582C28.6718 11.7788 24.3398 16.3943 24.3398 21.5C24.3398 26.6057 28.672 31.2202 35.6543 34.5332C32.7302 35.9206 29.3417 37.0806 25.6113 37.9512C17.3928 34.0073 12.1699 28.1023 12.1699 21.5C12.1699 14.8976 17.3927 8.99177 25.6113 5.04785ZM45.6963 5.04785C53.9153 8.99177 59.1387 14.8975 59.1387 21.5C59.1387 28.1025 53.9151 34.0072 45.6963 37.9512C41.9663 37.0806 38.5782 35.9205 35.6543 34.5332C42.6366 31.2202 46.9688 26.6057 46.9688 21.5C46.9688 16.3943 42.6368 11.7788 35.6543 8.46582C38.5782 7.07853 41.9664 5.91838 45.6963 5.04785ZM21.4131 0C26.4519 2.82525e-05 31.26 0.563322 35.6543 1.58496C31.9818 2.43881 28.5989 3.61423 25.6113 5.04785C20.6604 3.89246 15.1079 3.24513 9.24316 3.24512C6.05426 3.24512 2.95767 3.43742 0 3.79785C6.08322 1.40358 13.4607 0 21.4131 0ZM49.8955 0C57.8479 0 65.2254 1.40358 71.3086 3.79785C68.3509 3.43742 65.2543 3.24512 62.0654 3.24512C56.2004 3.24513 50.6474 3.89235 45.6963 5.04785C42.709 3.61441 39.3265 2.43873 35.6543 1.58496C40.0486 0.563321 44.8566 2.93855e-05 49.8955 0Z" fill="#2AAC52"/>
</svg>
