<svg width="88" height="53" viewBox="0 0 88 53" fill="none" xmlns="http://www.w3.org/2000/svg">
<path d="M31.5674 46.7773C35.2498 48.5445 39.4195 49.9925 43.9463 51.0449C38.5298 52.3042 32.6036 53 26.3926 53C16.5908 53 7.49795 51.2704 0 48.3193C3.64551 48.7636 7.46207 49 11.3926 49C18.6214 49 25.4649 48.2015 31.5674 46.7773ZM56.3242 46.7773C62.4269 48.2016 69.2708 49 76.5 49C80.4305 49 84.2471 48.7636 87.8926 48.3193C80.3946 51.2704 71.3017 53 61.5 53C55.289 53 49.3628 52.3042 43.9463 51.0449C48.4728 49.9925 52.642 48.5443 56.3242 46.7773ZM31.5674 6.22168C36.1653 7.29469 40.342 8.72448 43.9463 10.4346C35.3399 14.518 30 20.2069 30 26.5C30 32.793 35.3401 38.481 43.9463 42.5645C40.342 44.2746 36.1654 45.7043 31.5674 46.7773C21.4375 41.9162 15 34.6377 15 26.5C15 18.3622 21.4373 11.0828 31.5674 6.22168ZM56.3242 6.22168C66.4547 11.0828 72.8926 18.362 72.8926 26.5C72.8926 34.6379 66.4545 41.9162 56.3242 46.7773C51.7265 45.7043 47.5503 44.2745 43.9463 42.5645C52.5525 38.481 57.8926 32.793 57.8926 26.5C57.8926 20.2069 52.5527 14.518 43.9463 10.4346C47.5503 8.7246 51.7266 7.29467 56.3242 6.22168ZM26.3926 0C32.6035 0 38.5299 0.694822 43.9463 1.9541C39.4196 3.00653 35.2497 4.45462 31.5674 6.22168C25.465 4.79758 18.6213 4 11.3926 4C7.46202 4 3.64554 4.23738 0 4.68164C7.49801 1.73052 16.5907 0 26.3926 0ZM61.5 0C71.3019 0 80.3946 1.73052 87.8926 4.68164C84.247 4.23738 80.4306 4 76.5 4C69.2709 4 62.4268 4.79745 56.3242 6.22168C52.6421 4.45479 48.4727 3.00646 43.9463 1.9541C49.3627 0.694822 55.2891 0 61.5 0Z" fill="#000148"/>
</svg>
